#!OML:ASF F:\VICON\USERDATA\INSTALL\rory3\rory3.ASF
:FULLY-SPECIFIED
:DEGREES
81
root 0.99948 16.6002 -1.94582 2.8409 -6.19391 4.9376
lowerback 22.4044 1.88428 -6.06634
upperback 4.9207 0.794985 -2.85294
thorax -7.13787 0.459616 0.132374
lowerneck -11.3202 -2.26816 -7.38853
upperneck -5.21684 -2.10383 8.56236
head 0.506433 -0.834584 4.0756
rclavicle -5.1684e-015 3.73715e-014
rhumerus -26.7291 6.85644 -81.6147
rradius 38.9429
rwrist 17.7159
rhand -37.2472 -0.60225
rfingers 7.12502
rthumb -10.3131 -30.3294
lclavicle -5.1684e-015 3.73715e-014
lhumerus -26.3734 0.411127 77.2544
lradius 33.6007
lwrist 0.253927
lhand -33.457 30.2413
lfingers 7.12502
lthumb -6.65538 60.1167
rfemur -37.0001 5.88259 11.3108
rtibia 68.5988
rfoot -33.074 -4.79076
rtoes -8.32205
lfemur -34.6247 9.74545 -25.118
ltibia 64.9904
lfoot -29.7254 -3.1313
ltoes -6.12875
82
root 1.00786 16.5273 -1.95631 2.96094 -6.261 5.20751
lowerback 22.796 1.92288 -6.3071
upperback 5.01521 0.750165 -2.95331
thorax -7.23577 0.44166 0.164698
lowerneck -11.4532 -2.28965 -7.33742
upperneck -5.60569 -2.1113 8.56784
head 0.401145 -0.837639 4.06682
rclavicle 1.59028e-015 -5.4467e-014
rhumerus -26.6663 6.94733 -81.4657
rradius 39.1524
rwrist 17.7048
rhand -37.5096 -0.882861
rfingers 7.12502
rthumb -10.5662 -30.5973
lclavicle 1.59028e-015 -5.4467e-014
lhumerus -26.3194 -0.192671 77.2022
lradius 33.9467
lwrist 0.403437
lhand -33.6706 30.4542
lfingers 7.12502
lthumb -6.86156 60.323
rfemur -37.8626 5.49547 10.9625
rtibia 69.7214
rfoot -33.3311 -4.66104
rtoes -8.80697
lfemur -35.3282 10.0152 -25.4946
ltibia 65.9679
lfoot -30.1738 -3.26981
ltoes -6.56606
83
root 1.01452 16.4419 -1.97456 3.16261 -6.30473 5.38159
lowerback 23.2336 1.95711 -6.47926
upperback 5.03584 0.709007 -3.00963
thorax -7.43845 0.428053 0.202763
lowerneck -11.5611 -2.29357 -7.39432
upperneck -5.85586 -2.09045 8.62038
head 0.337378 -0.824138 4.09818
rclavicle -2.98177e-015 1.43125e-014
rhumerus -26.6861 7.18105 -81.3123
rradius 39.3563
rwrist 17.4223
rhand -37.7193 -0.473234
rfingers 7.12502
rthumb -10.7685 -30.1772
lclavicle -2.98177e-015 1.43125e-014
lhumerus -26.4302 -0.848724 77.165
lradius 34.446
lwrist 0.470489
lhand -33.4335 30.4678
lfingers 7.12502
lthumb -6.63271 60.3439
rfemur -38.8757 5.06307 10.7557
rtibia 70.9031
rfoot -33.5926 -4.69034
rtoes -9.7167
lfemur -36.2486 10.3089 -25.7714
ltibia 67.014
lfoot -30.4781 -3.46141
ltoes -7.06855
84
root 1.02169 16.3549 -1.99599 3.42873 -6.27431 5.46106
lowerback 23.6667 1.94087 -6.51163
upperback 5.04803 0.637396 -3.03815
thorax -7.64538 0.398189 0.20146
lowerneck -11.6711 -2.30249 -7.50019
upperneck -6.12981 -2.06874 8.69431
head 0.267022 -0.809001 4.14732
rclavicle -1.43125e-014 6.75868e-015
rhumerus -26.6889 7.40613 -81.1401
rradius 39.5742
rwrist 17.3599
rhand -38.0349 -0.309903
rfingers 7.12502
rthumb -11.0729 -29.9978
lclavicle -1.43125e-014 6.75868e-015
lhumerus -26.5263 -1.68602 77.1439
lradius 34.9872
lwrist 0.817284
lhand -33.4521 30.6575
lfingers 7.12502
lthumb -6.65071 60.5331
rfemur -39.948 4.60827 10.6644
rtibia 72.0976
rfoot -33.8279 -4.73559
rtoes -10.6958
lfemur -37.3054 10.5377 -25.9613
ltibia 68.1113
lfoot -30.552 -3.61543
ltoes -7.86096
85
root 1.02777 16.2723 -2.01449 3.63158 -6.19964 5.60496
lowerback 24.1144 1.88454 -6.58496
upperback 5.10605 0.50054 -3.11578
thorax -7.80474 0.3362 0.190411
lowerneck -11.8235 -2.32152 -7.44596
upperneck -6.46579 -2.07503 8.67468
head 0.181591 -0.811406 4.12938
rclavicle -5.56597e-015 -5.1684e-015
rhumerus -26.7313 7.60584 -81.0353
rradius 39.9773
rwrist 17.3732
rhand -38.1497 -0.88948
rfingers 7.12502
rthumb -11.1837 -30.5714
lclavicle -5.56597e-015 -5.1684e-015
lhumerus -26.5703 -2.56046 77.0508
lradius 35.4655
lwrist 1.25425
lhand -33.7576 30.6003
lfingers 7.12502
lthumb -6.94557 60.4663
rfemur -40.901 4.15263 10.4908
rtibia 73.2872
rfoot -34.0932 -4.53337
rtoes -11.1619
lfemur -38.2504 10.7035 -26.2039
ltibia 69.1837
lfoot -30.7402 -3.83574
ltoes -8.17508
86
root 1.03427 16.1906 -2.03265 3.83126 -6.08993 5.83342
lowerback 24.5488 1.82422 -6.70101
upperback 5.1669 0.346573 -3.21644
thorax -7.95227 0.266874 0.18479
lowerneck -12.0169 -2.34059 -7.44708
upperneck -6.74889 -2.07422 8.70268
head 0.121753 -0.807643 4.1401
rclavicle -1.98785e-016 1.66979e-014
rhumerus -26.827 7.74591 -80.8949
rradius 40.4129
rwrist 17.4103
rhand -38.226 -0.973713
rfingers 7.12502
rthumb -11.2572 -30.6517
lclavicle -1.98785e-016 1.66979e-014
lhumerus -26.6144 -3.3548 76.9425
lradius 35.9029
lwrist 1.55313
lhand -33.9259 30.3063
lfingers 7.12502
lthumb -7.10808 60.1669
rfemur -41.8629 3.65358 10.2232
rtibia 74.4895
rfoot -34.341 -4.34053
rtoes -11.3674
lfemur -39.1612 10.8148 -26.5426
ltibia 70.2368
lfoot -31.0205 -4.19389
ltoes -7.82437
87
root 1.04117 16.1099 -2.05165 4.07849 -6.05196 5.92847
lowerback 24.9759 1.80242 -6.74561
upperback 5.20975 0.264013 -3.25995
thorax -8.11921 0.231275 0.180316
lowerneck -12.2193 -2.37688 -7.42707
upperneck -7.0522 -2.09814 8.6884
head 0.0576134 -0.81702 4.13025
rclavicle 1.41137e-014 -9.93923e-015
rhumerus -26.8903 7.9279 -80.7209
rradius 40.7359
rwrist 17.3648
rhand -38.4608 -0.834735
rfingers 7.12502
rthumb -11.4837 -30.5002
lclavicle 1.41137e-014 -9.93923e-015
lhumerus -26.6825 -4.33509 76.9185
lradius 36.3951
lwrist 2.13958
lhand -34.038 29.9472
lfingers 7.12502
lthumb -7.21622 59.8042
rfemur -42.9248 3.2692 10.0979
rtibia 75.6734
rfoot -34.5676 -4.11904
rtoes -11.1945
lfemur -40.1017 11.0037 -26.763
ltibia 71.3003
lfoot -31.309 -4.34268
ltoes -7.94794
88
root 1.05175 16.0228 -2.06789 4.38974 -5.98983 5.96181
lowerback 25.333 1.73733 -6.70096
upperback 5.22317 0.156726 -3.27275
thorax -8.28175 0.182963 0.168512
lowerneck -12.3807 -2.36837 -7.38527
upperneck -7.35141 -2.06861 8.6173
head -0.01852 -0.801394 4.09826
rclavicle 5.1684e-015 -1.07344e-014
rhumerus -27.0392 8.17563 -80.5342
rradius 41.1104
rwrist 17.2818
rhand -38.5749 -0.708249
rfingers 7.12502
rthumb -11.5937 -30.3675
lclavicle 5.1684e-015 -1.07344e-014
lhumerus -26.8979 -5.39483 76.9214
lradius 36.987
lwrist 2.68628
lhand -34.2583 29.674
lfingers 7.12502
lthumb -7.42893 59.5236
rfemur -44.0445 2.87833 10.0105
rtibia 76.861
rfoot -34.7815 -3.84169
rtoes -10.8071
lfemur -41.1521 11.1417 -26.9443
ltibia 72.4115
lfoot -31.5298 -4.32139
ltoes -8.33946
89
root 1.06298 15.9324 -2.08152 4.61538 -5.91518 6.04548
lowerback 25.7233 1.65882 -6.67422
upperback 5.25728 0.0248274 -3.29826
thorax -8.43637 0.122943 0.161376
lowerneck -12.3743 -2.34624 -7.45981
upperneck -7.75815 -2.00982 8.64925
head -0.158314 -0.771197 4.12924
rclavicle -5.1684e-015 3.65764e-014
rhumerus -27.2968 8.47211 -80.3407
rradius 41.6492
rwrist 17.0888
rhand -38.4354 -0.647563
rfingers 7.12502
rthumb -11.4592 -30.3144
lclavicle -5.1684e-015 3.65764e-014
lhumerus -27.2144 -6.36166 76.9011
lradius 37.6025
lwrist 3.10362
lhand -34.1771 29.5517
lfingers 7.12502
lthumb -7.35053 59.404
rfemur -45.0471 2.41114 9.87378
rtibia 78.0617
rfoot -34.995 -3.67519
rtoes -10.9742
lfemur -42.1188 11.2388 -27.1674
ltibia 73.5592
lfoot -31.8099 -4.43139
ltoes -8.47427
